<?xml version="1.0" encoding="utf-8" ?>
<svg xmlns="http://www.w3.org/2000/svg" xmlns:xlink="http://www.w3.org/1999/xlink" width="83" height="26">
	<defs>
		<clipPath id="clip_0">
			<rect x="-162" y="-2756" width="375" height="4326" clip-rule="evenodd"/>
		</clipPath>
	</defs>
	<g clip-path="url(#clip_0)">
		<path fill="rgb(151,151,151)" stroke="none" transform="translate(0.255615 0)" d="M23.2009 17.524C23.3298 17.81 23.4587 18.148 23.5876 18.46C23.9226 19.422 24.0258 20.332 23.8195 21.242C23.536 23.166 22.273 24.83 20.4686 25.558C19.8242 25.844 19.1025 25.974 18.3807 25.974C18.1745 25.974 17.9167 25.948 17.7105 25.922C16.8599 25.818 15.9835 25.532 15.1329 25.038C14.1018 24.44 13.0708 23.582 11.9366 22.334C10.8025 23.582 9.79718 24.44 8.74035 25.038C7.88973 25.532 7.01333 25.818 6.16271 25.922C5.9565 25.948 5.69873 25.974 5.49252 25.974C4.77078 25.974 4.07482 25.844 3.40463 25.558C1.62606 24.83 0.337241 23.192 0.0537008 21.242C-0.0751812 20.306 0.0279244 19.396 0.363018 18.434C0.4919 18.096 0.620782 17.784 0.749664 17.498C0.955875 17.03 1.16209 16.588 1.34252 16.172L1.3683 16.12C3.14687 12.22 5.0801 8.268 7.06488 4.368L7.14221 4.212C7.34842 3.822 7.55463 3.406 7.76084 2.99C8.01861 2.522 8.30215 2.028 8.68879 1.56C9.53942 0.572 10.6994 0 11.9882 0C13.2512 0 14.4369 0.572 15.2618 1.612C15.6742 2.08 15.932 2.574 16.1897 3.042C16.3959 3.458 16.6021 3.874 16.8084 4.264L16.8857 4.42C18.8962 8.32 20.8037 12.272 22.5823 16.172L22.608 16.198C22.7885 16.614 22.9947 17.056 23.2009 17.524ZM19.9015 24.076C21.1646 23.556 22.0667 22.386 22.2472 21.034C22.3503 20.358 22.273 19.708 22.0667 19.032C21.9894 18.772 21.8605 18.512 21.7316 18.2C21.5254 17.784 21.345 17.316 21.1388 16.9L21.1388 16.874C19.3602 13 17.4528 9.048 15.4938 5.174L15.4164 5.018C15.2102 4.628 15.004 4.212 14.7978 3.822C14.5916 3.406 14.3596 3.016 14.0761 2.678C13.5348 2.054 12.813 1.716 12.0139 1.716C11.2149 1.716 10.4931 2.054 9.95184 2.678C9.6683 3.016 9.43631 3.406 9.2301 3.822C9.02389 4.212 8.81767 4.628 8.61146 5.018L8.53413 5.174C6.54935 9.022 4.6419 12.974 2.86333 16.848L2.83755 16.9C2.63134 17.342 2.42513 17.784 2.24469 18.2C2.11581 18.512 1.98693 18.772 1.9096 19.032C1.65184 19.76 1.60028 20.41 1.67761 21.06C1.85805 22.412 2.76022 23.582 4.02327 24.102C4.61612 24.336 5.28631 24.44 5.98227 24.362C6.62668 24.284 7.27109 24.076 7.94128 23.686C8.86923 23.166 9.82295 22.36 10.8798 21.164C9.20432 19.058 8.14749 17.108 7.76084 15.392C7.55463 14.612 7.52886 13.858 7.63196 13.182C7.73507 12.532 7.96705 11.934 8.32792 11.414C9.12699 10.27 10.4674 9.568 11.9624 9.568C13.4574 9.568 14.7978 10.244 15.5969 11.414C15.9577 11.934 16.1897 12.532 16.2928 13.182C16.3702 13.858 16.3444 14.586 16.1639 15.392C15.7773 17.108 14.7462 19.032 13.045 21.138C14.1276 22.334 15.0556 23.14 15.9835 23.66C16.6537 24.05 17.2981 24.258 17.9425 24.336C18.6127 24.414 19.2829 24.336 19.9015 24.076ZM43.4869 6.526C43.4869 7.462 42.7394 8.216 41.8115 8.216C40.8835 8.216 40.136 7.462 40.136 6.526C40.136 5.59 40.8577 4.836 41.8115 4.836C42.7652 4.862 43.4869 5.616 43.4869 6.526ZM56.4009 9.308C54.6997 9.308 53.9006 10.348 53.9006 10.348L53.9006 4.862L51.4261 4.862L51.4261 19.344L53.5139 19.344C53.7202 19.344 53.8748 19.162 53.8748 18.98L53.8748 18.538C53.8748 18.538 54.6739 19.604 56.3751 19.604C59.1848 19.604 61.3758 17.42 61.3758 14.456C61.4015 11.492 59.2105 9.308 56.4009 9.308ZM75.0372 10.348C75.0372 10.348 75.8363 9.308 77.5376 9.308C80.3214 9.308 82.5124 11.492 82.5124 14.456C82.5124 17.42 80.3214 19.604 77.5118 19.604C75.8105 19.604 75.0115 18.538 75.0115 18.538L75.0115 18.98C75.0115 19.162 74.8568 19.344 74.6506 19.344L72.5627 19.344L72.5627 4.862L75.0372 4.862L75.0372 10.348ZM36.5789 9.932L36.5789 10.348C36.5789 10.348 35.7798 9.308 34.0785 9.308C31.2689 9.308 29.0779 11.466 29.0779 14.456C29.0779 17.42 31.2431 19.604 34.0785 19.604C35.8056 19.604 36.5789 18.538 36.5789 18.538L36.5789 18.98C36.5789 19.188 36.7335 19.344 36.9397 19.344L39.0276 19.344L39.0276 9.568L36.9397 9.568C36.7335 9.568 36.5789 9.75 36.5789 9.932ZM49.2866 9.308C50.0341 9.308 50.4208 9.438 50.4208 9.438L50.4208 11.752C50.4208 11.752 48.3587 11.05 47.0698 12.532L47.0698 19.37L44.5953 19.37L44.5953 9.568L46.6832 9.568C46.8894 9.568 47.0441 9.75 47.0441 9.932L47.0441 10.348C47.508 9.802 48.5133 9.308 49.2866 9.308ZM71.2739 19.37L71.2739 13.546C71.2739 11.908 70.9388 10.972 70.0624 10.244C69.3407 9.62 68.4385 9.308 67.3559 9.308C66.4021 9.308 65.4484 9.594 64.7267 10.348L64.7267 9.932C64.7267 9.75 64.572 9.568 64.3658 9.568L62.4068 9.568L62.4068 19.344L64.8813 19.344L64.8813 12.532C65.3711 11.96 66.1444 11.57 66.8919 11.57C68.2838 11.57 68.7994 12.22 68.7994 13.832L68.7994 19.37L71.2739 19.37ZM40.5742 9.568L43.0487 9.568L43.0487 19.344L40.5742 19.344L40.5742 9.568ZM11.9624 19.812C10.5705 18.044 9.6683 16.38 9.35898 14.976C9.2301 14.378 9.20432 13.858 9.28165 13.39C9.3332 12.974 9.48786 12.61 9.69407 12.298C10.1838 11.596 11.0087 11.154 11.9624 11.154C12.9161 11.154 13.7667 11.57 14.2307 12.298C14.4369 12.61 14.5916 12.974 14.6431 13.39C14.7205 13.858 14.6947 14.404 14.5658 14.976C14.2565 16.354 13.3543 18.018 11.9624 19.812ZM53.9006 16.172C54.2872 16.744 55.0348 17.238 55.9885 17.238C57.6382 17.238 58.9012 16.198 58.9012 14.43C58.9012 12.662 57.6382 11.622 55.9885 11.622C55.1121 11.622 54.2872 12.168 53.9006 12.688L53.9006 16.172ZM77.1251 17.238C76.1714 17.238 75.4239 16.744 75.0372 16.172L75.0372 12.688C75.4239 12.168 76.2487 11.622 77.1251 11.622C78.7748 11.622 80.0379 12.662 80.0379 14.43C80.0379 16.198 78.7748 17.238 77.1251 17.238ZM34.491 17.264C35.4189 17.264 36.1922 16.77 36.5789 16.198L36.5789 12.714C36.218 12.168 35.3931 11.648 34.491 11.648C32.8413 11.648 31.5782 12.688 31.5782 14.456C31.5782 16.224 32.8413 17.264 34.491 17.264Z" fill-rule="evenodd"/>
	</g>

</svg>