<?xml version="1.0" encoding="utf-8" ?>
<svg xmlns="http://www.w3.org/2000/svg" xmlns:xlink="http://www.w3.org/1999/xlink" width="26" height="26">
	<defs>
		<clipPath id="clip_0">
			<rect x="-305.56" y="-2644.8401" width="360" height="4152.96" clip-rule="evenodd"/>
		</clipPath>
	</defs>
	<g clip-path="url(#clip_0)">
		<path fill="rgb(151,151,151)" stroke="none" transform="matrix(0.96 0 0 0.96 0.679993 0.919922)" d="M25.9969 5.09478L20.743 9.55261L25.5688 13.3339L17.9799 18.5081L12.9985 14.6075L20.743 9.55261L12.9985 4.49771L18.408 0L25.9969 5.09478ZM5.29271 9.55261L12.9985 14.6075L7.93924 18.5081L0.505974 13.5328L5.29271 9.55261L5.29271 9.55261ZM5.29271 9.55261L12.9985 4.49771L7.82241 0L0 5.01519L5.29271 9.55261L5.29271 9.55261ZM21.0674 17.8712L17.9022 19.9939L12.9986 16.2929L7.88741 19.9743L4.92974 18.0638L4.92974 20.3123L12.869 25.6193L21.0675 20.5247L21.0675 17.8712L21.0674 17.8712Z" fill-rule="evenodd"/>
	</g>

</svg>