<?xml version="1.0" encoding="utf-8" ?>
<svg xmlns="http://www.w3.org/2000/svg" xmlns:xlink="http://www.w3.org/1999/xlink" width="77" height="26">
	<defs>
		<clipPath id="clip_0">
			<rect x="-30" y="-2756" width="375" height="4326" clip-rule="evenodd"/>
		</clipPath>
	</defs>
	<g clip-path="url(#clip_0)">
		<path fill="rgb(151,151,151)" stroke="none" transform="translate(20.3194 7.22217)" d="M6.34537 12.8151C9.84174 12.8151 12.6907 10.0967 12.6907 6.40756C12.6907 2.69244 9.84174 0 6.34537 0C2.849 0 0 2.69244 0 6.40756C0 10.0967 2.849 12.8151 6.34537 12.8151ZM6.34537 2.52489C8.26182 2.52489 9.91304 4.10222 9.91304 6.40756C9.91304 8.68689 8.26182 10.2902 6.34537 10.2902C4.42893 10.2902 2.7777 8.68978 2.7777 6.40756C2.7777 4.10222 4.42893 2.52489 6.34537 2.52489Z" fill-rule="evenodd"/>
	</g>
	<defs>
		<clipPath id="clip_1">
			<rect x="-30" y="-2756" width="375" height="4326" clip-rule="evenodd"/>
		</clipPath>
	</defs>
	<g clip-path="url(#clip_1)">
		<path fill="rgb(151,151,151)" stroke="none" transform="translate(34.0083 7.22217)" d="M6.34537 12.8151C9.84174 12.8151 12.6907 10.0967 12.6907 6.40756C12.6907 2.69244 9.84174 0 6.34537 0C2.849 0 0 2.69533 0 6.40756C0 10.0967 2.849 12.8151 6.34537 12.8151ZM6.34537 2.52489C8.26182 2.52489 9.91304 4.10222 9.91304 6.40756C9.91304 8.68689 8.26182 10.2902 6.34537 10.2902C4.42893 10.2902 2.7777 8.68978 2.7777 6.40756C2.7777 4.10222 4.42893 2.52489 6.34537 2.52489Z" fill-rule="evenodd"/>
	</g>
	<defs>
		<clipPath id="clip_2">
			<rect x="-30" y="-2756" width="375" height="4326" clip-rule="evenodd"/>
		</clipPath>
	</defs>
	<g clip-path="url(#clip_2)">
		<path fill="rgb(151,151,151)" stroke="none" transform="translate(47.6915 7.22217)" d="M12.1261 11.8907L12.1261 0.39L9.48811 0.39L9.48811 1.43289L9.39115 1.43289C8.76659 0.678889 7.56881 0 6.06019 0C2.89748 0 0 2.81378 0 6.43067C0 10.0216 2.89748 12.8122 6.06019 12.8122C7.57167 12.8122 8.76944 12.1333 9.39115 11.3562L9.48811 11.3562L9.48811 12.2778C9.48811 14.7304 8.19622 16.0333 6.11152 16.0333C4.41181 16.0333 3.35663 14.8027 2.926 13.7598L0.50763 14.7796C1.20348 16.4782 3.04863 18.5553 6.11437 18.5553C9.37119 18.5553 12.1261 16.6227 12.1261 11.8907ZM6.3083 2.52489C8.19907 2.52489 9.68489 4.17444 9.68489 6.43067C9.68489 8.66378 8.19907 10.2902 6.3083 10.2902C4.39185 10.2902 2.78626 8.66378 2.78626 6.43067C2.78626 4.17444 4.39185 2.52489 6.3083 2.52489Z" fill-rule="evenodd"/>
	</g>
	<defs>
		<clipPath id="clip_3">
			<rect x="-30" y="-2756" width="375" height="4326" clip-rule="evenodd"/>
		</clipPath>
	</defs>
	<g clip-path="url(#clip_3)">
		<path fill="rgb(151,151,151)" stroke="none" transform="translate(61.4574 0.866699)" d="M2.70926 0L2.70926 18.7778L0 18.7778L0 0L2.70926 0Z"/>
	</g>
	<defs>
		<clipPath id="clip_4">
			<rect x="-30" y="-2756" width="375" height="4326" clip-rule="evenodd"/>
		</clipPath>
	</defs>
	<g clip-path="url(#clip_4)">
		<path fill="rgb(151,151,151)" stroke="none" transform="translate(65.3331 7.21924)" d="M11.5471 9.97533L9.39115 8.51933C8.67248 9.58822 7.69144 10.2931 6.27693 10.2931C4.86526 10.2931 3.85856 9.63733 3.21119 8.35178L11.6669 4.80422L11.3789 4.07622C10.8541 2.64622 9.24856 0 5.96607 0C2.70641 0 0 2.59711 0 6.40756C0 10.0013 2.68359 12.8151 6.27693 12.8151C9.17441 12.8151 10.8513 11.0182 11.5471 9.97533ZM8.40726 3.83644L2.75489 6.214C2.68359 3.74111 4.64852 2.47867 6.06019 2.47867C7.161 2.47867 8.09641 3.03622 8.40726 3.83644Z" fill-rule="evenodd"/>
	</g>
	<defs>
		<clipPath id="clip_5">
			<rect x="-30" y="-2756" width="375" height="4326" clip-rule="evenodd"/>
		</clipPath>
	</defs>
	<g clip-path="url(#clip_5)">
		<path fill="rgb(151,151,151)" stroke="none" transform="translate(0.102667 0.135742)" d="M9.96152 11.8271L9.96152 9.10867L19.0047 9.10867C19.0931 9.58244 19.1388 10.1429 19.1388 10.7496C19.1388 12.7891 18.5884 15.3111 16.8145 17.108C15.0891 18.928 12.8847 19.8987 9.96437 19.8987C4.55156 19.8987 0 15.4324 0 9.94933C0 4.46622 4.55156 0 9.96437 0C12.9588 0 15.092 1.19022 16.6947 2.74156L14.8011 4.65978C13.6518 3.56778 12.0947 2.71844 9.96152 2.71844C6.00885 2.71844 2.91744 5.94533 2.91744 9.94933C2.91744 13.9533 6.00885 17.1802 9.96152 17.1802C12.5253 17.1802 13.9855 16.1373 14.9209 15.1898C15.6795 14.4213 16.1786 13.3236 16.3753 11.8242L9.96152 11.8271Z"/>
	</g>

</svg>